<?xml version="1.0" encoding="utf-8"?>
<!-- Generator: Adobe Illustrator 24.2.1, SVG Export Plug-In . SVG Version: 6.00 Build 0)  -->
<svg version="1.1" id="Layer_6" xmlns="http://www.w3.org/2000/svg" xmlns:xlink="http://www.w3.org/1999/xlink" x="0px" y="0px"
	 viewBox="0 0 720.8 154.3" style="enable-background:new 0 0 720.8 154.3;" xml:space="preserve">
<style type="text/css">
	.st0{fill:#9E0918;}
	.st1{fill:#003055;}
</style>
<g>
	<path class="st0" d="M81.4,2c-3.3,0-8.5,0.3-9.3,0.3c-0.6,0-7-0.3-11.9-0.3c-1.3,0-1.8,0.3-1.8,0.9c0,0.4,0.4,0.9,0.9,0.9
		c1,0,2.9,0.1,3.8,0.2c3.6,0.5,4.3,2.5,4.4,5.9c0.1,3.4,0.2,6.4,0.2,23v13.4c0,10.9-1.1,19.7-6.3,25.8c-3.8,4.5-10.3,7.5-17.1,7.5
		c-6.3,0-11-0.9-16.4-5.8c-4.8-4.3-8.2-10.7-8.2-26.1V32.9c0-16.6,0-19.6,0.3-23c0.2-3.5,0.9-5.4,3.8-5.9c1.4-0.2,2-0.2,2.8-0.2
		c0.5,0,1-0.5,1-0.9C27.6,2.3,27,2,25.7,2c-3.3,0-10.2,0.3-11.2,0.3S6.8,2,1.8,2C0.6,2,0,2.3,0,2.9c0,0.4,0.5,0.9,0.9,0.9
		c1,0,2.9,0.1,3.8,0.2C8.3,4.5,9,6.5,9.2,9.9c0.3,3.4,0.3,6.4,0.3,23v15.7c0,15.6,4.3,23,9.7,28c7.8,7.3,19.3,7.5,22.9,7.5
		c6.5,0,15-0.9,23.1-7.8c8.8-7.5,10.3-20.4,10.3-32V32.9c0-16.6-0.1-19.6,0.1-23c0.2-3.5,0.9-5.3,3.9-5.9c1.4-0.2,2-0.2,2.8-0.2
		c0.5,0,0.9-0.5,0.9-0.9C83.1,2.3,82.6,2,81.4,2z M154,36.4l-3.1-2.1C140,26.9,136.6,23,136.6,16.2c0-7.5,6.6-11.5,14.7-11.5
		c9.9,0,13.5,4,14.3,5.3c0.6,1.1,1.5,4,1.6,5.3c0.1,0.9,0.3,1.4,1,1.4s0.9-0.8,0.9-2.4c0-7.3,0.5-10.8,0.5-11.3
		c0-0.6-0.2-0.8-1.1-0.8c-0.9,0-1.8,0-3.9-0.5c-2.6-0.6-7-1.3-11.4-1.3c-14.5,0-24.5,7.5-24.5,20.1c0,7.4,3.9,13.9,15.8,22.8l5,3.8
		c9.8,7.3,13.9,10.9,13.9,18.6c0,8-5.6,14.2-16.6,14.2c-7.4,0-15.7-2.8-17.4-10.5c-0.4-1.5-0.4-3-0.4-3.9s-0.4-1.3-1-1.3
		s-0.9,0.6-0.9,1.8c-0.1,1.8-0.6,6-0.6,11.3c0,2.9,0.1,3.3,1.6,4c4.5,2.1,10.9,2.9,16,2.9c6,0,12.9-0.8,17.6-3.8
		c7.9-5.1,10.3-11.9,10.3-18.2C172.1,52.9,167.4,45.5,154,36.4z M99.1,69.9c-3.9,0-5.5,3.2-5.5,5.5c0,2.5,1.6,5.5,5.4,5.5
		c3.4,0,5.6-2.6,5.6-5.8C104.7,71.9,102.3,69.9,99.1,69.9z M194.1,69.9c-3.9,0-5.5,3.2-5.5,5.5c0,2.5,1.6,5.5,5.4,5.5
		c3.4,0,5.6-2.6,5.6-5.8C199.6,71.9,197.2,69.9,194.1,69.9z M490.2,80.9c-1.1,0-2.8-0.1-4.4-0.6c-2.4-0.7-5.4-2.1-9.4-11.7
		c-6.8-16.2-24.5-60.2-26.5-64.7c-1.1-2.4-1.5-3.9-2.6-3.9c-0.8,0-1.2,0.6-2.6,4.1l-26,66.7c-2.1,5.4-4.3,9.1-9.3,9.8
		c-0.9,0.1-2.5,0.3-3.2,0.3c-0.6,0-1.8,0-3.8-0.4c-2.8-0.4-6.4-1.4-12.3-7.4c-6.4-6.6-14.1-16.3-23.1-27.6
		c10.3-8.8,13.5-16.4,13.5-24.3c0-7.4-4.9-12.5-7.6-14.6c-5.8-4-13.5-4.6-20.6-4.6c-3.4,0-12.7,0.3-13.8,0.3c-0.6,0-8-0.3-13-0.3
		c-1.3,0-1.8,0.3-1.8,0.9c0,0.4,0.5,0.9,0.9,0.9c1,0,2.9,0.1,3.8,0.2c3.6,0.5,4.3,2.3,4.5,5.9c0.2,3.4,0.2,6.4,0.2,23v18.8
		c0,10.3,0,18.7-0.6,23.1c-0.5,3.1-0.8,5.1-2.9,5.6c-1,0.2-2.4,0.5-3.4,0.5c-0.6,0-0.9,0.5-0.9,0.9c0,0.6,0.6,0.9,1.8,0.9
		c3.4,0,10.8-0.4,10.9-0.4c0.5,0,7.5,0.4,13.5,0.4c1.3,0,1.8-0.4,1.8-0.9c0-0.4-0.1-0.9-0.9-0.9c-1,0-3.4-0.3-4.9-0.5
		c-3.4-0.5-4-2.5-4.4-5.6c-0.5-4.4-0.5-12.7-0.5-22.9v-2.5c0-0.6,0.3-0.9,0.7-0.9l14,0.3c0.8,0,1,0.1,1.5,0.6
		c2.4,2.9,7.3,9.8,11.9,15.6c6.3,8,10.3,13.2,15,15.7c2.7,1.5,5.5,2.1,11.8,2.1h6.9c0.7,0,1.2,0,1.6-0.1c0.3,0.1,0.7,0.1,1.1,0.1
		c4.5,0,10-0.4,11.2-0.4c1.3,0,7.3,0.4,9.9,0.4c1,0,1.6-0.3,1.6-0.9c0-0.5-0.2-0.9-1.1-0.9h-1c-1.9,0-3.8-0.8-3.8-2.9
		c0-1.9,0.6-4.5,1.6-7.1l6.6-17.2c0.2-0.6,0.6-0.9,1.1-0.9h25.5c0.6,0,0.7,0.1,1,0.6l9.9,24.5c0.8,1.8-0.4,2.6-1,2.9
		c-0.5,0.3-0.8,0.3-0.8,0.7c0,0.6,1.8,0.6,3.9,0.8c7.6,0.3,15.8,0.3,17.4,0.3c1.3,0,2.5-0.3,2.5-0.9
		C491.6,81.1,490.9,80.9,490.2,80.9z M363.9,43c-2.6,1.8-5.6,1.9-8.3,1.9c-4.9,0-10.5-0.8-12.2-1.6c-0.5-0.4-0.7-0.7-0.7-1.4V7.7
		c0-0.6,0.4-1,0.9-1.3c1.1-0.2,4.6-0.6,7.9-0.6c11.8,0,19.1,7.7,19.1,20.9C370.6,34.9,367.7,40.5,363.9,43z M457,48.5h-22.3
		c-0.4,0-0.5-0.2-0.4-0.8l10.3-29.2c0.6-1.6,1.3-1.6,1.9,0l10.9,29.3C457.5,48.3,457.5,48.5,457,48.5z M304.2,1.3
		c-0.5,0-1.5,0.3-3.1,0.5c-1.8,0.3-4.3,0.5-7.9,0.5h-41.6c-1.3,0-5.5-0.1-8.7-0.5c-3-0.4-4.1-1.3-4.9-1.3c-0.4,0-0.9,1.4-1.1,2
		c-0.1,0.9-2.4,10.4-2.4,11.5c0,0.6,0.5,0.9,0.8,0.9c0.5,0,0.9-0.1,1.1-1c0.4-0.8,0.5-1.5,1.8-3.4c1.6-2.5,4.3-3.3,11.2-3.4
		l15.9-0.2v44.8c0,10.3,0,18.7-0.5,23.1c-0.4,3.1-1,5.3-3.3,5.8c-1,0.2-2.3,0.5-3.3,0.5c-0.6,0-0.9,0.4-0.9,0.8
		c0,0.6,0.5,0.9,1.8,0.9c3.3,0,10.9-0.4,11.4-0.4c0.6,0,7.6,0.4,13.7,0.4c1.3,0,1.8-0.4,1.8-0.9c0-0.4-0.1-0.9-0.9-0.9
		c-1,0-3.5-0.3-5-0.5c-3.4-0.5-3.9-2.5-4.3-5.6c-0.5-4.4-0.5-12.8-0.5-23.1V6.9l13.8,0.2c10.5,0.3,12.9,2.6,13.3,5.9l0.1,1.1
		c0.1,1.5,0.4,1.9,0.9,1.9s1-0.5,1-1.4c0-1.2,0.4-8.9,0.4-12.2C304.7,1.9,304.7,1.3,304.2,1.3z M638.9,68.2c-0.6,0-0.9,0.4-1.1,1.6
		c-0.6,4.3-2.1,6.1-5,7.4c-2.9,1.1-8.1,1.1-11,1.1c-10.9,0-12.9-1.4-13.2-8.5c-0.1-2.1,0-14.5,0-18.2v-8.8c0-0.4,0.1-0.7,0.7-0.7
		c1.9,0,13.7,0.1,16.7,0.5c4.3,0.5,5.3,1.8,5.6,3.3c0.5,1.4,0.5,2.5,0.5,3.5c0,0.6,0.3,1,0.8,1c0.7,0,1-1.1,1-2
		c0-0.7,0.3-4.8,0.5-6.9c0.3-3.5,0.9-5.3,0.9-5.9s-0.2-0.9-0.6-0.9c-0.4,0-0.9,0.6-1.6,1.4c-1.1,1.1-2.8,1.3-5.4,1.5
		s-17.1,0.2-18.5,0.2c-0.6,0-0.6-0.4-0.6-1.1v-29c0-0.8,0.1-1.1,0.6-1.1c1.3,0,14,0.1,15.9,0.4c6,0.8,7.1,1.5,7.9,3.3
		c0.5,1.3,0.6,3,0.6,3.8c0,0.9,0.3,1.4,0.9,1.4c0.5,0,0.9-0.6,1-1.1c0.3-1.3,0.5-6,0.6-7c0.2-3,0.9-4.3,0.9-5c0-0.5-0.1-1-0.5-1
		c-0.5,0-1,0.4-1.5,0.5c-0.9,0.1-2.9,0.5-5,0.6c-2.5,0.1-25.6,0-26.3,0c-0.6,0-7.8-0.3-12.8-0.3c-1.2,0-1.8,0.3-1.8,0.9
		c0,0.4,0.5,0.9,0.9,0.9c1,0,2.9,0.1,3.8,0.2c3.6,0.5,4.3,2.3,4.5,5.9c0.2,3.4,0.2,6.4,0.2,23v18.8c0,10.3,0,18.7-0.6,23.1
		c-0.5,3.1-0.7,5.3-2.9,5.6c-1,0.1-2.4,0.5-3.4,0.5c-0.6,0-0.9,0.5-0.9,0.9c0,0.6,0.6,0.9,1.8,0.9c1.8,0,4.3-0.1,6.4-0.3
		c2.4-0.1,4.5-0.1,4.8-0.1c1.6,0,4.5,0,9.2,0.3c4.5,0.1,10.9,0.4,19.2,0.4c4.3,0,5.4,0,6.1-2.8c0.6-2.3,1.5-9.5,1.5-10.3
		C639.7,69.1,639.6,68.2,638.9,68.2z M719.3,67.7c-0.6,0-1,0.6-1.1,1.4c-0.4,2.1-1.3,4.4-2.6,6c-2.6,3.1-7.5,3.3-13.3,3.3
		c-8.6,0-12.9-0.8-14.7-2.5c-2-1.9-2.3-8.3-2.3-24v-19c0-16.6,0-19.6,0.1-23c0.3-3.8,0.9-5.4,4.1-6c1.3-0.1,2.9-0.3,3.6-0.3
		c0.4,0,0.9-0.4,0.9-0.7c0-0.6-0.6-0.9-1.8-0.9c-3.4,0-11.7,0.3-12.2,0.3c-0.6,0-7.5-0.3-12.5-0.3c-1.3,0-1.8,0.3-1.8,0.9
		c0,0.4,0.5,0.9,0.9,0.9c1,0,2.9,0.1,3.8,0.2c3.6,0.5,4.3,2.3,4.5,5.9c0.3,3.4,0.3,6.4,0.3,23v18.8c0,10.3,0,18.7-0.6,23.1
		c-0.5,3.1-0.7,5.1-2.9,5.6c-1,0.2-2.4,0.5-3.4,0.5c-0.6,0-0.9,0.5-0.9,0.9c0,0.6,0.6,0.9,1.7,0.9c1.8,0,4.1-0.1,6.4-0.3
		c2.1-0.1,4-0.1,4.5-0.1c3.3,0,7,0.1,12,0.3c5.1,0.2,11.3,0.4,19.2,0.4c5.9,0,6.3-0.4,7-2.9c0.9-3.1,1.6-9.5,1.6-10.6
		C720.1,68.2,719.8,67.7,719.3,67.7z M574.4,2c-3.3,0-8,0.3-8.6,0.3c-1.4,0-6.4-0.3-10.8-0.3c-1.7,0-2.5,0.3-2.5,0.9
		c0,0.5,0.6,0.9,1.3,0.9c1.2,0,2.5,0,3.8,0.4c1.1,0.4,1.5,1.4,1.5,2.2s-0.5,2.4-1,4c-2.4,7.6-16.8,44-23.2,58.3L514.1,15
		c-1.6-4.3-3-7.5-3-8.9c0-0.8,0.1-1.4,1.3-1.9c1-0.4,2.8-0.5,4-0.5c0.8,0,1.1-0.5,1.1-1s-1-0.8-3-0.8c-4.3,0-9.2,0.3-10.3,0.3
		c-1.4,0-7.6-0.3-12.9-0.3c-1.8,0-2.9,0.1-2.9,0.8c0,0.4,0.3,1,0.9,1s2.5,0,4.3,0.4c3.6,0.9,5.1,2,7.6,8l26.9,65.4
		c2.1,5.1,2.9,6.5,4.1,6.5c1.1,0,1.7-1.6,4.8-8c2.5-5.3,7.4-16.8,14.2-32.3c5.6-13,11-25.8,12.3-28.8c2.9-7.3,4.6-8.8,6.1-9.8
		c2-1.3,4.5-1.3,5.3-1.3c0.9,0,1.3-0.5,1.3-1C576.1,2.3,575.5,2,574.4,2z"/>
	<g>
		<path class="st1" d="M48.3,142.3c-0.2,0-0.3,0.1-0.4,0.3l-2.1,5.7c-0.4,1-0.6,1.9-0.6,2.4c0,0.7,0.4,1.2,1.6,1.2h0.6
			c0.5,0,0.6,0.1,0.6,0.3c0,0.3-0.2,0.4-0.7,0.4c-1.3,0-3-0.1-4.2-0.1c-0.4,0-2.6,0.1-4.7,0.1c-0.5,0-0.7-0.1-0.7-0.4
			c0-0.2,0.2-0.3,0.5-0.3c0.4,0,0.9,0,1.2-0.1c1.8-0.2,2.6-1.6,3.4-3.6l9.9-24.9c0.5-1.2,0.7-1.6,1.1-1.6s0.6,0.4,1,1.3
			c1,2.2,7.3,18.3,9.8,24.3c1.5,3.6,2.7,4.1,3.5,4.3c0.6,0.1,1.2,0.2,1.7,0.2c0.3,0,0.5,0,0.5,0.3s-0.4,0.4-1.8,0.4
			c-1.4,0-4.3,0-7.5-0.1c-0.7,0-1.2,0-1.2-0.3c0-0.2,0.2-0.3,0.6-0.4c0.3-0.1,0.6-0.4,0.4-0.9l-3.2-8.4c-0.1-0.2-0.2-0.3-0.4-0.3
			h-8.9V142.3z M56.4,140.3c0.2,0,0.2-0.1,0.2-0.2l-3.6-9.8c0-0.2-0.1-0.4-0.2-0.4s-0.2,0.2-0.2,0.4L49,140c0,0.2,0,0.3,0.2,0.3
			H56.4z"/>
		<path class="st1" d="M105.9,152.1c-0.6-0.3-0.8-0.5-0.8-1.3c0-2.2,0.2-4.5,0.2-5.2c0-0.6,0.2-1,0.5-1c0.4,0,0.4,0.4,0.4,0.7
			c0,0.5,0.2,1.3,0.4,2c0.9,2.9,3.2,4,5.7,4c3.6,0,5.3-2.4,5.3-4.5c0-2-0.6-3.8-3.9-6.3l-1.8-1.4c-4.4-3.4-5.9-6.2-5.9-9.4
			c0-4.4,3.6-7.5,9.1-7.5c2.6,0,4.2,0.4,5.3,0.7c0.4,0.1,0.6,0.2,0.6,0.5c0,0.5-0.2,1.7-0.2,4.8c0,0.9-0.1,1.2-0.4,1.2
			c-0.3,0-0.4-0.2-0.4-0.7c0-0.4-0.2-1.6-1-2.6c-0.6-0.8-1.7-1.9-4.3-1.9c-2.9,0-4.7,1.7-4.7,4.1c0,1.8,0.9,3.2,4.2,5.7l1.1,0.8
			c4.8,3.6,6.5,6.4,6.5,10.1c0,2.3-0.9,5-3.7,6.9c-2,1.3-4.2,1.6-6.3,1.6C109.4,153.2,107.6,152.9,105.9,152.1z"/>
		<path class="st1" d="M163,152.1c-0.6-0.3-0.8-0.5-0.8-1.3c0-2.2,0.2-4.5,0.2-5.2c0-0.6,0.2-1,0.5-1c0.4,0,0.4,0.4,0.4,0.7
			c0,0.5,0.2,1.3,0.4,2c0.9,2.9,3.2,4,5.7,4c3.6,0,5.3-2.4,5.3-4.5c0-2-0.6-3.8-3.9-6.3l-1.8-1.4c-4.4-3.4-5.9-6.2-5.9-9.4
			c0-4.4,3.6-7.5,9.1-7.5c2.6,0,4.2,0.4,5.3,0.7c0.4,0.1,0.6,0.2,0.6,0.5c0,0.5-0.2,1.7-0.2,4.8c0,0.9-0.1,1.2-0.4,1.2
			c-0.3,0-0.4-0.2-0.4-0.7c0-0.4-0.2-1.6-1-2.6c-0.6-0.8-1.7-1.9-4.3-1.9c-2.9,0-4.7,1.7-4.7,4.1c0,1.8,0.9,3.2,4.2,5.7l1.1,0.8
			c4.8,3.6,6.5,6.4,6.5,10.1c0,2.3-0.9,5-3.7,6.9c-2,1.3-4.2,1.6-6.3,1.6C166.5,153.2,164.7,152.9,163,152.1z"/>
		<path class="st1" d="M218,137.7c0-6.8,4.5-15.5,16.4-15.5c9.9,0,16,5.8,16,14.8c0,9.1-6.3,16.2-16.4,16.2
			C222.6,153.2,218,144.7,218,137.7z M244.8,138.4c0-8.9-5.1-14.4-11.6-14.4c-4.6,0-9.7,2.5-9.7,12.4c0,8.2,4.6,14.8,12.2,14.8
			C238.4,151.2,244.8,149.9,244.8,138.4z"/>
		<path class="st1" d="M293.7,148.9c-3.9-3.4-4.9-7.8-4.9-11.7c0-2.7,0.8-7.4,4.6-10.9c2.9-2.6,6.6-4.2,12.5-4.2
			c2.5,0,3.9,0.2,5.7,0.4c1.5,0.2,2.8,0.6,4,0.7c0.4,0,0.6,0.2,0.6,0.5s-0.1,0.8-0.2,2.2c-0.1,1.3,0,3.5-0.1,4.3
			c0,0.6-0.1,0.9-0.5,0.9c-0.3,0-0.4-0.3-0.4-0.9c0-1.2-0.5-2.6-1.5-3.6c-1.3-1.4-4.4-2.4-8-2.4c-3.4,0-5.7,0.9-7.4,2.4
			c-2.9,2.6-3.6,6.4-3.6,10.3c0,9.4,7.2,14.1,12.5,14.1c3.5,0,5.7-0.4,7.2-2.2c0.7-0.8,1.2-1.9,1.3-2.6c0.1-0.6,0.2-0.8,0.5-0.8
			s0.4,0.3,0.4,0.6c0,0.5-0.5,3.9-0.9,5.3c-0.2,0.7-0.4,0.9-1,1.1c-1.6,0.6-4.6,0.9-7.1,0.9C301.8,153.2,297.2,152,293.7,148.9z"/>
		<path class="st1" d="M358.8,134.2c0-6,0-7.1-0.1-8.4c-0.1-1.3-0.5-2-1.3-2.2c-0.4-0.1-0.9-0.2-1.4-0.2c-0.4,0-0.6-0.1-0.6-0.4
			c0-0.2,0.3-0.3,1-0.3c1.5,0,4,0.1,5.2,0.1c1,0,3.3-0.1,4.8-0.1c0.5,0,0.8,0.1,0.8,0.3c0,0.3-0.2,0.4-0.6,0.4s-0.7,0-1.2,0.1
			c-1.1,0.2-1.4,0.9-1.5,2.2s-0.1,2.4-0.1,8.4v7c0,3.9,0,7,0.2,8.7c0.1,1.1,0.4,1.8,1.6,1.9c0.6,0.1,1.4,0.2,2,0.2
			c0.4,0,0.6,0.1,0.6,0.3c0,0.3-0.3,0.4-0.7,0.4c-2.6,0-5.1-0.1-6.2-0.1c-0.9,0-3.4,0.1-5,0.1c-0.5,0-0.8-0.1-0.8-0.4
			c0-0.2,0.2-0.3,0.6-0.3c0.6,0,1.1-0.1,1.4-0.2c0.8-0.2,1-0.8,1.2-2c0.2-1.7,0.2-4.8,0.2-8.6v-6.9H358.8z"/>
		<path class="st1" d="M412.3,142.3c-0.2,0-0.3,0.1-0.4,0.3l-2.1,5.7c-0.4,1-0.6,1.9-0.6,2.4c0,0.7,0.3,1.2,1.6,1.2h0.6
			c0.5,0,0.6,0.1,0.6,0.3c0,0.3-0.2,0.4-0.7,0.4c-1.3,0-3-0.1-4.2-0.1c-0.4,0-2.6,0.1-4.7,0.1c-0.5,0-0.8-0.1-0.8-0.4
			c0-0.2,0.2-0.3,0.5-0.3c0.4,0,0.9,0,1.2-0.1c1.8-0.2,2.6-1.6,3.4-3.6l9.9-24.9c0.5-1.2,0.7-1.6,1.1-1.6s0.6,0.4,1,1.3
			c0.9,2.2,7.3,18.3,9.8,24.3c1.5,3.6,2.6,4.1,3.5,4.3c0.6,0.1,1.2,0.2,1.7,0.2c0.3,0,0.5,0,0.5,0.3s-0.4,0.4-1.8,0.4
			s-4.3,0-7.5-0.1c-0.7,0-1.2,0-1.2-0.3c0-0.2,0.2-0.3,0.6-0.4c0.3-0.1,0.6-0.4,0.3-0.9l-3.2-8.4c-0.1-0.2-0.2-0.3-0.4-0.3h-8.7
			L412.3,142.3L412.3,142.3z M420.4,140.3c0.2,0,0.2-0.1,0.2-0.2l-3.6-9.8c0-0.2-0.1-0.4-0.2-0.4s-0.2,0.2-0.2,0.4L413,140
			c0,0.2,0,0.3,0.2,0.3H420.4z"/>
		<path class="st1" d="M475.2,124.9l-5.9,0.2c-2.3,0.1-3.2,0.3-3.8,1.1c-0.4,0.6-0.6,1.1-0.7,1.4c-0.1,0.3-0.2,0.5-0.4,0.5
			c-0.3,0-0.4-0.2-0.4-0.6c0-0.6,0.7-4.2,0.8-4.5c0.1-0.5,0.2-0.8,0.5-0.8s0.7,0.4,1.7,0.5c1.2,0.1,2.7,0.2,4,0.2h15.7
			c1.3,0,2.1-0.1,2.7-0.2c0.6-0.1,0.9-0.2,1.1-0.2c0.3,0,0.3,0.2,0.3,0.8c0,0.8-0.1,3.6-0.1,4.6c0,0.4-0.1,0.6-0.4,0.6
			s-0.4-0.2-0.4-0.8v-0.4c-0.1-1-1.1-2.1-4.7-2.2l-5-0.1v16.2c0,3.6,0,6.8,0.2,8.5c0.1,1.1,0.4,2,1.5,2.1c0.6,0.1,1.4,0.2,2,0.2
			c0.4,0,0.6,0.1,0.6,0.3c0,0.3-0.3,0.4-0.8,0.4c-2.6,0-5.1-0.1-6.2-0.1c-0.9,0-3.4,0.1-5,0.1c-0.5,0-0.8-0.1-0.8-0.4
			c0-0.2,0.2-0.3,0.6-0.3c0.6,0,1.1-0.1,1.4-0.2c0.8-0.2,1-1,1.1-2.2c0.2-1.7,0.2-4.8,0.2-8.4v-16.3L475.2,124.9L475.2,124.9z"/>
		<path class="st1" d="M532.1,134.2c0-6,0-7.1-0.1-8.4c-0.1-1.3-0.5-2-1.3-2.2c-0.4-0.1-1-0.2-1.4-0.2s-0.6-0.1-0.6-0.4
			c0-0.2,0.3-0.3,0.9-0.3c1.5,0,4,0.1,5.2,0.1c1,0,3.3-0.1,4.8-0.1c0.5,0,0.8,0.1,0.8,0.3c0,0.3-0.2,0.4-0.6,0.4
			c-0.4,0-0.7,0-1.2,0.1c-1.1,0.2-1.4,0.9-1.5,2.2s-0.1,2.4-0.1,8.4v7c0,3.9,0,7,0.2,8.7c0.1,1.1,0.4,1.8,1.6,1.9
			c0.6,0.1,1.4,0.2,2,0.2c0.4,0,0.6,0.1,0.6,0.3c0,0.3-0.3,0.4-0.7,0.4c-2.6,0-5.1-0.1-6.2-0.1c-0.9,0-3.4,0.1-5,0.1
			c-0.5,0-0.8-0.1-0.8-0.4c0-0.2,0.2-0.3,0.6-0.3c0.6,0,1.1-0.1,1.4-0.2c0.8-0.2,1-0.8,1.2-2c0.2-1.7,0.2-4.8,0.2-8.6L532.1,134.2
			L532.1,134.2z"/>
		<path class="st1" d="M579.4,137.7c0-6.8,4.5-15.5,16.4-15.5c9.9,0,16,5.8,16,14.8c0,9.1-6.3,16.2-16.4,16.2
			C584,153.2,579.4,144.7,579.4,137.7z M606.2,138.4c0-8.9-5.1-14.4-11.6-14.4c-4.6,0-9.7,2.5-9.7,12.4c0,8.2,4.5,14.8,12.1,14.8
			C599.8,151.2,606.2,149.9,606.2,138.4z"/>
		<path class="st1" d="M656.3,147.2c0.1,3.1,0.6,4.1,1.4,4.4c0.7,0.2,1.4,0.3,2.1,0.3c0.4,0,0.7,0.1,0.7,0.3c0,0.3-0.4,0.4-0.9,0.4
			c-2.6,0-4.2-0.1-4.9-0.1c-0.4,0-2.2,0.1-4.3,0.1c-0.5,0-0.9-0.1-0.9-0.4c0-0.2,0.2-0.3,0.6-0.3c0.5,0,1.2,0,1.8-0.2
			c1-0.3,1.2-1.5,1.2-4.9l0.4-23.4c0-0.8,0.1-1.3,0.5-1.3s0.8,0.5,1.5,1.2c0.5,0.5,6.5,7,12.3,12.7c2.7,2.7,8,8.4,8.7,9h0.2
			l-0.4-17.8c0-2.4-0.4-3.2-1.3-3.6c-0.6-0.2-1.5-0.2-2.1-0.2c-0.5,0-0.6-0.1-0.6-0.4c0-0.3,0.4-0.3,1-0.3c2.1,0,4,0.1,4.8,0.1
			c0.4,0,1.9-0.1,3.9-0.1c0.5,0,0.9,0,0.9,0.3c0,0.2-0.2,0.4-0.7,0.4c-0.4,0-0.7,0-1.2,0.1c-1.1,0.3-1.4,1.1-1.5,3.4l-0.4,25
			c0,0.9-0.2,1.2-0.5,1.2c-0.4,0-0.9-0.4-1.3-0.9c-2.5-2.4-7.6-7.6-11.7-11.6c-4.3-4.3-8.7-9.2-9.4-10h-0.1L656.3,147.2z"/>
	</g>
</g>
<g>
	<path class="st1" d="M697.7,128.5L697.7,128.5c0-3.7,2.9-6.7,6.6-6.7c3.7,0,6.6,3,6.6,6.6l0,0c0,3.6-2.9,6.7-6.6,6.7
		S697.7,132.1,697.7,128.5z M710.2,128.5L710.2,128.5c0-3.3-2.5-5.9-5.9-5.9c-3.3,0-5.9,2.7-5.9,5.9l0,0c0,3.2,2.5,5.9,5.9,5.9
		C707.6,134.4,710.2,131.7,710.2,128.5z M701.7,124.9h3c1.5,0,2.6,0.7,2.6,2.1c0,1.1-0.6,1.8-1.6,2.1l1.8,2.6h-1.6l-1.6-2.3h-1.4
		v2.3h-1.3L701.7,124.9L701.7,124.9z M704.7,128.3c0.9,0,1.4-0.5,1.4-1.1c0-0.7-0.5-1.1-1.4-1.1h-1.6v2.2L704.7,128.3L704.7,128.3z"
		/>
</g>
</svg>
